<?xml version="1.0" encoding="UTF-8"?>
<svg id="Layer_1" data-name="Layer 1" xmlns="http://www.w3.org/2000/svg" xmlns:xlink="http://www.w3.org/1999/xlink" viewBox="0 0 439 591">
  <defs>
    <style>
      .cls-1 {
        fill: #ccc;
      }

      .cls-1, .cls-2 {
        stroke: #000;
        stroke-miterlimit: 10;
        stroke-width: 2px;
      }

      .cls-2 {
        fill: none;
      }

      .cls-3 {
        clip-path: url(#clippath);
      }
    </style>
    <clipPath id="clippath">
      <path class="cls-2" d="M413.36,556.59l-391.4,24.02c-5.5.34-10.14-4.04-10.12-9.55L13.96,22.05c.02-5.46,4.62-9.79,10.07-9.48l351.62,19.96c4.78.27,8.61,4.04,8.97,8.81l37.66,505.03c.4,5.3-3.62,9.9-8.92,10.22Z"/>
    </clipPath>
  </defs>
  <g class="cls-3">
    <rect class="cls-1" x="1" y="1" width="437" height="589"/>
  </g>
  <path class="cls-2" d="M413.36,556.59l-391.4,24.02c-5.5.34-10.14-4.04-10.12-9.55L13.96,22.05c.02-5.46,4.62-9.79,10.07-9.48l351.62,19.96c4.78.27,8.61,4.04,8.97,8.81l37.66,505.03c.4,5.3-3.62,9.9-8.92,10.22Z"/>
</svg>