<svg id="Layer_1" data-name="Layer 1" xmlns="http://www.w3.org/2000/svg" xmlns:xlink="http://www.w3.org/1999/xlink" viewBox="0 0 488.52 732.91">
  <defs>
    <clipPath id="clippath">
      <path d="M456.06,618.6l-400.15,51.53c-6.53.84-12.32-4.25-12.32-10.83V67.19c0-6.61,5.82-11.7,12.37-10.83l335.38,44.79c4.9.65,8.74,4.51,9.38,9.41l64.76,495.78c.78,5.99-3.44,11.48-9.44,12.25Z" fill="none" stroke="#000" stroke-miterlimit="10" stroke-width="1.5"/>
    </clipPath>
  </defs>
  <g clip-path="url(#clippath)">
    <image width="1887" height="2831" transform="scale(.26)" xlink:href="../AppData/Local/Temp/AI_28_1/Adobe/AISVG/0/main-card-1/main-card-11.png"/>
  </g>
  <path d="M456.06,618.6l-400.15,51.53c-6.53.84-12.32-4.25-12.32-10.83V67.19c0-6.61,5.82-11.7,12.37-10.83l335.38,44.79c4.9.65,8.74,4.51,9.38,9.41l64.76,495.78c.78,5.99-3.44,11.48-9.44,12.25Z" fill="none" stroke="#000" stroke-miterlimit="10" stroke-width="1.5"/>
</svg>